<?xml version="1.0" encoding="utf-8"?>
<!-- Generator: Adobe Illustrator 16.0.0, SVG Export Plug-In . SVG Version: 6.00 Build 0)  -->
<!DOCTYPE svg PUBLIC "-//W3C//DTD SVG 1.1//EN" "http://www.w3.org/Graphics/SVG/1.1/DTD/svg11.dtd">
<svg version="1.1" xmlns="http://www.w3.org/2000/svg" xmlns:xlink="http://www.w3.org/1999/xlink" x="0px" y="0px"
	 width="515.906px" height="226.771px" viewBox="0 0 515.906 226.771" enable-background="new 0 0 515.906 226.771"
	 xml:space="preserve">
<g id="Text">
	<path fill="#808080" d="M199.916,148.201c0,2.172-0.483,5.248-1.448,9.229c-0.967,3.98-1.447,7.057-1.447,9.229v37.275
		c0,2.292,0.724,5.911,2.171,10.855c-1.827,2.777-3.837,4.162-6.031,4.162c-7.673,0-11.877-3.8-12.607-11.399
		c-1.207-14.114-1.81-24.728-1.81-31.847c0-11.942,0.481-21.953,1.448-30.037c0-0.602,0-1.204,0-1.809
		c0-2.172,1.674-3.258,5.021-3.258c2.986,0,5.974,0.605,8.965,1.81C198.002,143.74,199.916,145.668,199.916,148.201z"/>
	<path fill="#808080" d="M242.256,212.98c0,2.171-0.876,4.012-2.624,5.519c-1.75,1.507-3.772,2.262-6.062,2.262
		c-7.6,0-11.399-9.952-11.399-29.856c0-9.047,0.09-22.617,0.271-40.713c0.181-18.094,0.271-31.665,0.271-40.712
		c0-1.448-0.181-3.557-0.543-6.333c-0.362-2.774-0.543-4.824-0.543-6.152c3.981-2.652,7.116-3.981,9.409-3.981
		c2.652,0,5.186,0.876,7.6,2.624c2.412,1.75,3.619,3.953,3.619,6.604c0,1.329-0.303,2.895-0.905,4.705
		c-0.845,2.895-1.329,4.464-1.448,4.705c-1.569,7.48-2.352,18.095-2.352,31.847c0,21.835,0,33.054,0,33.655
		c0.362,15.2,1.628,25.816,3.8,31.848C241.954,210.689,242.256,212.016,242.256,212.98z"/>
	<path fill="#808080" d="M326.939,107.851c0,2.655-0.362,6.093-1.086,10.313c-0.967,5.672-1.569,9.048-1.81,10.133
		c-0.361,3.741-0.936,14.779-1.719,33.113c-0.786,18.338-1.176,28.471-1.176,30.399c0,11.581,1.267,20.267,3.8,26.056
		c-2.053,3.377-4.405,5.066-7.058,5.066c-2.776,0-5.247-1.057-7.419-3.166c-2.171-2.109-3.378-4.552-3.618-7.328
		c-5.672,5.188-11.462,7.781-17.371,7.781c-8.807,0-15.624-3.076-20.447-9.229c-4.464-5.547-6.694-12.848-6.694-21.895
		c0-10.614,2.171-21.412,6.514-32.39c5.547-13.87,12.785-20.81,21.714-20.81c5.307,0,10.735,2.354,16.285,7.058
		c0.602-5.669,0.904-20.145,0.904-43.427c0-2.171,1.629-3.257,4.886-3.257c3.859,0,7.207,0.967,10.042,2.895
		C325.519,101.096,326.939,103.991,326.939,107.851z M305.949,169.191c0-4.1-0.904-7.84-2.714-11.219
		c-2.293-4.1-5.31-6.152-9.048-6.152c-5.428,0-9.59,5.369-12.484,16.104c-2.172,7.722-3.258,15.321-3.258,22.799
		c0,11.219,3.258,16.828,9.771,16.828c6.754,0,11.64-5.005,14.656-15.019C304.922,185.779,305.949,177.998,305.949,169.191z"/>
	<path fill="#808080" d="M408.182,201.942c0,6.034-4.103,10.738-12.305,14.114c-6.396,2.652-13.09,3.98-20.085,3.98
		c-18.578,0-27.865-10.555-27.865-31.666c0-8.686,2.108-18.334,6.333-28.951c5.185-13.027,11.459-19.542,18.818-19.542
		c6.633,0,13.78,2.958,21.442,8.866c7.658,5.912,11.489,12.064,11.489,18.457c0,7.961-3.56,14.295-10.676,18.999
		c-6.273,4.224-13.752,6.333-22.438,6.333c-1.69,0-4.404-1.023-8.143-3.076c0.481,11.462,3.859,17.189,10.134,17.189
		c5.307,0,10.522-1.506,15.651-4.523c5.126-3.014,8.414-4.523,9.861-4.523C405.586,197.6,408.182,199.047,408.182,201.942z
		 M388.458,167.744c0-3.014-0.876-5.881-2.623-8.596c-1.75-2.714-4.071-4.07-6.967-4.07c-3.98,0-7.057,1.75-9.229,5.246
		c-1.81,3.018-2.714,6.576-2.714,10.676c0,2.293,0.783,4.162,2.353,5.609c1.566,1.448,3.557,2.172,5.971,2.172
		C384.054,178.781,388.458,175.104,388.458,167.744z"/>
	<path fill="#808080" d="M513.071,148.294c0,6.594-3.474,9.89-10.419,9.89h-24.628v18.628c0,2.001,0.577,5.158,1.736,9.472
		c-1.579,2.317-3.315,3.475-5.21,3.475c-7.262,0-10.893-3.262-10.893-9.788v-21.786h-30.311c-1.579-2.736-2.368-4.946-2.368-6.631
		c0-1.999,0.734-3.813,2.21-5.447c1.473-1.63,3.157-2.446,5.052-2.446c1.894,0,4.682,0.212,8.367,0.631
		c3.683,0.422,6.473,0.633,8.366,0.633h8.684v-28.891c2.842-1.473,5.21-2.21,7.104-2.21c1.788,0,3.868,0.685,6.236,2.052
		c2.368,1.369,3.552,2.842,3.552,4.42c0,1.791-0.422,4.396-1.263,7.814c-0.844,3.422-1.263,6.026-1.263,7.815v8.999h21.154
		c2.21,0,5.577-0.421,10.104-1.264C511.807,144.998,513.071,146.543,513.071,148.294z"/>
</g>
<g id="Grey">
	<g>
		
			<path fill="#818080" stroke="#808080" stroke-width="0.7087" stroke-linecap="round" stroke-linejoin="bevel" stroke-miterlimit="10" d="
			M202.46,128.832l2.562-2.145l2.068-2.504c11.528-16.493-5.25-37.539-23.916-30.155l-2.814,1.46l-2.609,1.863
			c-16.522,14.378-1.878,40.426,19.081,34.402l2.978-1.342L202.46,128.832z"/>
		
			<path fill="#818080" stroke="#808080" stroke-width="0.7087" stroke-linecap="round" stroke-linejoin="bevel" stroke-miterlimit="10" d="
			M160.125,81.29l-3.232,3.408c-11.451,14.305-13.245,33.542-4.196,49.545l2.697,4.215c0.003,0.002-7.975,10.98-7.975,10.98
			l-0.912,1.598c-2.268,6.43,5.073,11.764,10.489,7.621l1.239-1.357l14.647-20.156l0.12-0.166l-3.159-2.547
			c-11.033-10.896-12.392-28.074-2.92-40.44l2.708-3.037l1.192-1.641c2.825-6.157-2.893-12.06-9.133-9.144l-1.446,0.955"/>
	</g>
</g>
<g id="Tomato">
	
		<path fill="#C33B25" stroke="#C33B25" stroke-width="0.7087" stroke-linecap="round" stroke-linejoin="bevel" stroke-miterlimit="10" d="
		M146.175,18.807l-1.179-2.859l-1.745-2.771C131.12-2.842,106.045,6.316,107.063,26.45l0.655,3.232l0.776,3.066
		c9.389,19.967,37.687,14.367,38.831-7.596l-0.375-3.276L146.175,18.807z"/>
	
		<path fill="#C33B25" stroke="#C33B25" stroke-width="0.7087" stroke-linecap="round" stroke-linejoin="bevel" stroke-miterlimit="10" d="
		M99.825,38.474l-1.117-1.565l-1.357-1.235l-1.711-0.746l-1.907-0.13l-1.98,0.313l-1.61,0.836l-1.398,1.234l-1.025,1.758
		l-0.462,1.669l0.031,2.028l0.714,1.771l2.25,4.142c9.809,15.508,28.009,22.873,45.842,19.282l4.604-1.163l0.163,0.119l7.824,10.947
		l0.118-0.163l1.239,1.398c5.567,3.809,12.417-0.866,10.423-7.45l-0.999-1.729l0.283-0.047l-14.649-20.159l-0.163-0.119
		l-3.576,2.163c-13.074,7.265-31.22,2.96-39.251-9.741l-1.997-3.457L99.825,38.474z"/>
</g>
<g id="Yellow_x5F_pepper">
	<g>
		
			<path fill="#E6B647" stroke="#E6B647" stroke-width="0.7087" stroke-linecap="round" stroke-linejoin="bevel" stroke-miterlimit="10" d="
			M24.415,38.514l-3.158,0.213l-3.232,0.655C-0.856,46.394-0.006,72.585,19.5,78.02l3.29,0.638l3.156-0.209
			c21.825-1.807,25.303-31.75,4.725-38.894l-3.172-0.802L24.415,38.514z"/>
		
			<path fill="#E6B647" stroke="#E6B647" stroke-width="0.7087" stroke-linecap="round" stroke-linejoin="bevel" stroke-miterlimit="10" d="
			M28.691,88.458l3.919-0.911c15.12-4.306,24.154-18.986,21.525-34.446l-0.912-3.916l23.711-7.813l-0.118,0.163l1.98-0.313
			c6.184-0.377,9.696,8.085,3.951,12.136l-1.61,0.836l-0.12,0.165l-12.821,4.204l-0.414,4.708
			c-1.699,17.944-14.96,33.095-32.337,37.607l-4.767,1.045l-1.907-0.135c-6.646-0.974-7.696-9.653-1.853-12.613l1.938-0.597
			L28.691,88.458z"/>
	</g>
</g>
<g id="Avocado">
	<g>
		
			<path fill="#277A3D" stroke="#277A3D" stroke-width="0.7087" stroke-linecap="round" stroke-linejoin="bevel" stroke-miterlimit="10" d="
			M5.142,160.5l-0.688,3.01L4.1,166.758c0.68,20.105,26.21,27.391,37.198,10.502l1.412-2.98l0.967-3.051
			c4.719-21.285-22.274-33.895-35.545-16.57l-1.742,2.746L5.142,160.5z"/>
		
			<path fill="#277A3D" stroke="#277A3D" stroke-width="0.7087" stroke-linecap="round" stroke-linejoin="bevel" stroke-miterlimit="10" d="
			M67.63,174.107l-0.579,1.828c-3.361,6.068-11.98,4.297-12.677-2.197l-0.151-1.863l-0.163-0.117l0.388-3.979
			c0.221-16.082-10.399-28.621-26.245-31.088l-3.978-0.389l0.112-24.962l0.297-1.79c2.079-6.715,11.211-5.988,12.764,0.01
			l0.313,1.98l0.118-0.163l-0.038,13.499l-0.118,0.162l4.484,1.754c16.376,7.059,27.069,24.621,25.724,42.486l-0.416,4.709
			L67.63,174.107z"/>
	</g>
</g>
<g id="Aqua_x5F_blue">
	<g>
		<path fill="#349EAB" stroke="#349EAB" stroke-miterlimit="10" d="M115.357,216.301l2.74,1.744l2.934,1.129
			c19.066,5.734,34.458-16.373,21.482-31.975l-2.266-2.396l-2.622-1.906c-19.097-11.084-38.993,10.928-26.756,28.895l1.983,2.443
			L115.357,216.301z"/>
		<path fill="#349EAB" stroke="#349EAB" stroke-miterlimit="10" d="M78.802,170.453l-1.953-0.416
			c-6.879,0.137-9.209,8.096-3.867,12.215l1.712,0.746l23.703,7.701l1.441-3.705c7.125-14.029,22.726-20.549,37.62-15.24
			l3.592,1.607l0.279-0.041l1.834,0.578c6.325,1.262,10.77-6.408,6.029-11.398l-1.638-1.191l-4.367-1.916
			c-16.685-6.814-36.514-2.02-48.54,11.309l-2.9,3.648l-12.992-4.184"/>
	</g>
</g>
</svg>
